<svg xmlns="http://www.w3.org/2000/svg" width="1280" height="640" viewBox="0 0 1280 640" role="img" aria-labelledby="title description">
  <title id="title">neotheme.nvim</title>
  <desc id="description">The Neotheme editor mark and wordmark on a dark social card.</desc>
  <defs>
    <clipPath id="card-clip">
      <rect x="10" y="10" width="1260" height="620" rx="56"/>
    </clipPath>
  </defs>
  <rect x="10" y="10" width="1260" height="620" rx="56" fill="#171717" fill-opacity="0.97" stroke="#e2b95f" stroke-width="4" stroke-opacity="0.7"/>
  <g clip-path="url(#card-clip)">
    <circle cx="1160" cy="90" r="220" fill="#e2b95f" opacity="0.055"/>
    <circle cx="1110" cy="585" r="285" fill="#e2b95f" opacity="0.035"/>
  </g>
  <path d="M480 408H1136" stroke="#e2b95f" stroke-width="4" opacity="0.65"/>
  <g transform="translate(96 160) scale(2) translate(-0 -0)" aria-hidden="true">
<defs>
		<linearGradient id="mark" x1="36" y1="38" x2="124" y2="122" gradientUnits="userSpaceOnUse">
			<stop offset="0" stop-color="#e2b95f" />
			<stop offset="0.52" stop-color="#91a7c4" />
			<stop offset="1" stop-color="#91b879" />
		</linearGradient>
	</defs>
	<rect x="5" y="5" width="150" height="150" rx="32" fill="#171717" />
	<rect x="5.75" y="5.75" width="148.5" height="148.5" rx="31.25" fill="none" stroke="#4b4743" stroke-width="1.5" />
	<circle cx="31" cy="29" r="4" fill="#d17470" />
	<circle cx="45" cy="29" r="4" fill="#e2b95f" />
	<circle cx="59" cy="29" r="4" fill="#91b879" />
	<path d="M38 122V47L122 122V47" fill="none" stroke="#242424" stroke-width="22" stroke-linecap="round" stroke-linejoin="round" />
	<path d="M38 122V47L122 122V47" fill="none" stroke="url(#mark)" stroke-width="13" stroke-linecap="round" stroke-linejoin="round" />
  </g>
  <text x="480" y="325" fill="#f8fafc" font-family="Inter, ui-sans-serif, system-ui, -apple-system, BlinkMacSystemFont, 'Segoe UI', sans-serif" font-size="98" font-weight="750" letter-spacing="-4">
    <tspan>neotheme</tspan><tspan fill="#91b879">.nvim</tspan>
  </text>
  <text x="484" y="379" fill="#cbd5e1" font-family="Inter, ui-sans-serif, system-ui, -apple-system, BlinkMacSystemFont, 'Segoe UI', sans-serif" font-size="19" font-weight="650" letter-spacing="2.2">
    SEMANTIC, PALETTE-DRIVEN NEOVIM THEMES
  </text>
</svg>
